Coordinates
version=1
nRows=37
nColumns=30
inDegrees=yes

Units are S.I. units (second, meters, Newtons, ...)
Angles are in degrees.

endheader
time	floatyaw	floatroll	floatpitch	floatx	floaty	floatz	pro_sup_l	deviation_l	flexion_l	cmc_flexion_l	cmc_abduction_l	mp_flexion_l	ip_flexion_l	2mcp_flexion_l	2mcp_abduction_l	2pm_flexion_l	2md_flexion_l	3mcp_flexion_l	3mcp_abduction_l	3pm_flexion_l	3md_flexion_l	4mcp_flexion_l	4mcp_abduction_l	4pm_flexion_l	4md_flexion_l	5mcp_flexion_l	5mcp_abduction_l	5pm_flexion_l	5md_flexion_l
-0.495000	-2.462414	-4.584149	94.174208	-0.008173	-0.266338	-0.003287	91.126042	0.163375	-1.627398	25.263083	2.606710	-17.820854	-29.861616	19.492772	6.446013	31.727875	20.563003	8.998789	4.533906	34.617909	21.893982	-1.866987	-3.924298	51.531657	33.013858	-22.062325	-8.973310	62.685546	49.954753
-0.485000	-2.462414	-4.584149	94.174208	-0.007800	-0.265885	-0.002660	91.116638	0.083417	-1.485124	25.008196	2.835967	-17.648195	-29.378289	19.711940	6.493352	31.579442	20.591409	9.062112	4.594247	34.611653	22.017118	-1.908514	-3.990280	51.685617	33.017001	-21.882354	-9.046147	62.757367	49.828890
-0.475000	-2.462414	-4.584149	94.174208	-0.007274	-0.265209	-0.001748	91.024756	-0.034388	-1.266729	24.662399	3.227431	-17.484748	-28.839780	20.034767	6.538576	31.349447	20.611530	9.232159	4.673123	34.540968	22.121463	-1.876809	-4.070640	51.766035	32.957941	-21.464584	-9.142873	62.560406	49.550403
-0.465000	-2.462414	-4.584149	94.174208	-0.006561	-0.264288	-0.000508	90.822987	-0.180234	-0.968899	24.192283	3.800990	-17.333978	-28.246653	20.492347	6.582891	31.011657	20.602948	9.543412	4.763523	34.362939	22.202160	-1.701089	-4.145362	51.689872	32.825872	-20.742115	-9.269360	62.030101	49.056191
-0.455000	-2.462414	-4.584149	94.174208	-0.005622	-0.263129	0.001067	90.497437	-0.323879	-0.602452	23.565787	4.544597	-17.188857	-27.590741	21.113026	6.631247	30.552833	20.537662	10.011142	4.856739	34.057129	22.266727	-1.328905	-4.193946	51.412216	32.633834	-19.667622	-9.425612	61.142601	48.300690
-0.445000	-2.462414	-4.584149	94.174208	-0.004407	-0.261756	0.002955	90.049580	-0.419061	-0.187754	22.758575	5.419363	-17.035950	-26.859754	21.918414	6.689706	29.971331	20.385087	10.632844	4.946158	33.628725	22.328222	-0.742582	-4.202842	50.939513	32.413173	-18.220250	-9.603415	59.905901	47.267537
-0.435000	-2.462414	-4.584149	94.174208	-0.002864	-0.260203	0.005131	89.497113	-0.412132	0.252617	21.761424	6.371665	-16.862966	-26.047100	22.917085	6.761962	29.275199	20.121664	11.396960	5.030004	33.100420	22.394056	0.038225	-4.169480	50.321281	32.198736	-16.415925	-9.786217	58.356775	45.981038
-0.425000	-2.462414	-4.584149	94.174208	-0.000953	-0.258497	0.007582	88.874039	-0.251681	0.700076	20.585478	7.346856	-16.666109	-25.161201	24.096839	6.847191	28.484068	19.741513	12.293777	5.111256	32.498558	22.456638	0.968075	-4.101399	49.626699	32.014087	-14.317482	-9.951485	56.566416	44.512561
-0.415000	-2.462414	-4.584149	94.174208	0.001357	-0.256654	0.010319	88.227102	0.102070	1.142681	19.260648	8.301672	-16.453314	-24.226905	25.420836	6.940521	27.631462	19.261596	13.322610	5.194724	31.840156	22.491505	1.995410	-4.011665	48.916493	31.865440	-12.032780	-10.074779	54.639404	42.972283
-0.405000	-2.462414	-4.584149	94.174208	0.004071	-0.254687	0.013371	87.606486	0.669119	1.574294	17.826220	9.212825	-16.241214	-23.276609	26.833486	7.035760	26.761036	18.716984	14.490895	5.283056	31.127641	22.465424	3.080920	-3.913385	48.221358	31.746615	-9.693275	-10.134493	52.693596	41.483187
-0.395000	-2.462414	-4.584149	94.174208	0.007180	-0.252615	0.016769	87.053576	1.445372	1.992564	16.319121	10.077991	-16.047280	-22.337091	28.275739	7.128663	25.915877	18.148312	15.804874	5.374099	30.355544	22.351472	4.206680	-3.815708	47.535559	31.650046	-7.420426	-10.116758	50.829123	40.147037
-0.385000	-2.462414	-4.584149	94.174208	0.010663	-0.250467	0.020529	86.592447	2.404504	2.398384	14.767621	10.906931	-15.881402	-21.421525	29.701632	7.219179	25.127280	17.588597	17.257000	5.461262	29.525918	22.142915	5.374182	-3.722262	46.827373	31.575858	-5.298192	-10.020386	49.108055	39.019046
-0.375000	-2.462414	-4.584149	94.174208	0.014500	-0.248278	0.024638	86.229773	3.505220	2.797297	13.193413	11.706793	-15.741413	-20.531159	31.086806	7.311941	24.409914	17.056024	18.818563	5.536785	28.661175	21.857226	6.595284	-3.631782	46.059583	31.533566	-3.365767	-9.860536	47.557412	38.102922
-0.365000	-2.462414	-4.584149	94.174208	0.018677	-0.246084	0.029059	85.961567	4.700143	3.200561	11.618037	12.471400	-15.614901	-19.663572	32.425926	7.414867	23.764716	16.554573	20.443891	5.595936	27.803074	21.527661	7.881562	-3.540416	45.209249	31.536778	-1.629925	-9.668042	46.187993	37.365667
-0.355000	-2.462414	-4.584149	94.174208	0.023185	-0.243917	0.033738	85.780762	5.943058	3.623358	10.067123	13.182863	-15.486471	-18.821352	33.723250	7.536338	23.186060	16.080041	22.085054	5.639652	26.997027	21.188348	9.235355	-3.445079	44.279115	31.596104	-0.084741	-9.482168	45.011392	36.761800
-0.345000	-2.462414	-4.584149	94.174208	0.028015	-0.241811	0.038625	85.681061	7.193790	4.080061	8.568904	13.824843	-15.346652	-18.016834	34.983034	7.681994	22.669212	15.627579	23.708149	5.674353	26.273052	20.862830	10.643896	-3.346612	43.299051	31.715895	1.274195	-9.338574	44.044360	36.254959
-0.335000	-2.462414	-4.584149	94.174208	0.033160	-0.239810	0.043684	85.657082	8.421187	4.579055	7.148098	14.397994	-15.197648	-17.271374	36.203637	7.852478	22.215737	15.197741	25.300229	5.709549	25.637407	20.562613	12.077403	-3.251207	42.319603	31.896390	2.446397	-9.258226	43.302346	35.829140
-0.325000	-2.462414	-4.584149	94.174208	0.038608	-0.237968	0.048894	85.703963	9.603979	5.119943	5.819328	14.926877	-15.053128	-16.609814	37.375249	8.043020	21.835599	14.799637	26.861856	5.754743	25.080143	20.294425	13.491569	-3.169046	41.400448	32.138006	3.430812	-9.243051	42.789773	35.488109
-0.315000	-2.462414	-4.584149	94.174208	0.044335	-0.236347	0.054248	85.818922	10.729137	5.694339	4.584432	15.454213	-14.932717	-16.052527	38.479611	8.244905	21.545145	14.450660	28.390195	5.816868	24.591634	20.069162	14.834291	-3.110466	40.596772	32.442561	4.230912	-9.280171	42.493326	35.246962
-0.305000	-2.462414	-4.584149	94.174208	0.050299	-0.235004	0.059735	86.004273	11.788699	6.289835	3.435433	16.026894	-14.854369	-15.608561	39.491464	8.448107	21.361430	14.172849	29.864330	5.898713	24.175451	19.905440	16.056421	-3.081309	39.947033	32.808707	4.855919	-9.351737	42.381697	35.122350
-0.295000	-2.462414	-4.584149	94.174208	0.056441	-0.233982	0.065335	86.269182	12.777037	6.895616	2.361217	16.682477	-14.828068	-15.272984	40.382949	8.644089	21.295186	13.986720	31.243362	5.998389	23.849147	19.825540	17.125259	-3.079804	39.465535	33.224228	5.318688	-9.445019	42.412641	35.125878
-0.285000	-2.462414	-4.584149	94.174208	0.062689	-0.233299	0.071020	86.627807	13.689626	7.507584	1.353756	17.442529	-14.852975	-15.029094	41.131166	8.827868	21.345452	13.904562	32.479297	6.109842	23.633746	19.846993	18.035894	-3.096925	39.142075	33.662134	5.633835	-9.557869	42.544098	35.260716
-0.275000	-2.462414	-4.584149	94.174208	0.068978	-0.232955	0.076751	87.093910	14.522764	8.130801	0.410633	18.313190	-14.918517	-14.853735	41.725952	8.998734	21.498050	13.925959	33.536450	6.224500	23.540025	19.975710	18.812823	-3.120551	38.948741	34.086167	5.818281	-9.697117	42.742711	35.519255
-0.265000	-2.462414	-4.584149	94.174208	0.075256	-0.232931	0.082492	87.674399	15.273460	8.778323	-0.466399	19.288774	-15.008563	-14.723101	42.173003	9.159365	21.728765	14.038112	34.404796	6.333753	23.560579	20.205192	19.497945	-3.141375	38.851210	34.464131	5.893001	-9.870926	42.984933	35.881482
-0.255000	-2.462414	-4.584149	94.174208	0.081480	-0.233200	0.088199	88.365019	15.939750	9.467376	-1.274831	20.354475	-15.106758	-14.617147	42.489670	9.313704	22.010460	14.221538	35.099661	6.431387	23.671910	20.522047	20.130428	-3.157100	38.820038	34.780374	5.883522	-10.079784	43.252277	36.316232
-0.245000	-2.462414	-4.584149	94.174208	0.087607	-0.233738	0.093824	89.150106	16.522130	10.214950	-2.014770	21.487946	-15.200620	-14.521670	42.695986	9.464583	22.321233	14.458411	35.650374	6.514833	23.843996	20.913722	20.730872	-3.172305	38.837570	35.038911	5.818776	-10.312035	43.526269	36.786644
-0.235000	-2.462414	-4.584149	94.174208	0.093598	-0.234523	0.099312	90.005963	17.025567	11.034287	-2.691050	22.662203	-15.282739	-14.428018	42.807079	9.612159	22.649608	14.738695	36.087387	6.584826	24.050929	21.373100	21.299204	-3.194334	38.898645	35.256226	5.729826	-10.546942	43.786908	37.257778
-0.225000	-2.462414	-4.584149	94.174208	0.099420	-0.235537	0.104608	90.905766	17.460444	11.932297	-3.313206	23.851193	-15.349363	-14.331500	42.831585	9.753602	22.994354	15.060600	36.436065	6.643995	24.277245	21.897247	21.825304	-3.228229	39.006764	35.450288	5.648978	-10.763096	44.014610	37.702562
-0.215000	-2.462414	-4.584149	94.174208	0.105053	-0.236766	0.109667	91.824060	17.841207	12.907083	-3.892869	25.035703	-15.398223	-14.229927	42.775915	9.883802	23.359811	15.425813	36.718706	6.695378	24.518437	22.482037	22.303003	-3.273969	39.169051	35.633218	5.607387	-10.946576	44.194148	38.103938
-0.205000	-2.462414	-4.584149	94.174208	0.110482	-0.238199	0.114458	92.739891	18.183072	13.945752	-4.439506	26.205405	-15.427269	-14.122847	42.650372	9.996681	23.749803	15.833138	36.960253	6.741582	24.777287	23.117206	22.738282	-3.327153	39.392069	35.810163	5.629807	-11.094379	44.319349	38.454136
-0.195000	-2.462414	-4.584149	94.174208	0.115687	-0.239824	0.118956	93.638432	18.498154	15.024373	-4.956789	27.355492	-15.434542	-14.010884	42.472713	10.086942	24.163325	16.274747	37.191911	6.784733	25.058947	23.786388	23.148925	-3.381907	39.678900	35.982222	5.728556	-11.212810	44.396832	38.753650
-0.185000	-2.462414	-4.584149	94.174208	0.120634	-0.241628	0.123145	94.511245	18.792387	16.112204	-5.441631	28.480961	-15.418519	-13.894710	42.267048	10.152145	24.594193	16.737661	37.449771	6.826970	25.367860	24.473834	23.559124	-3.433990	40.027998	36.150036	5.900870	-11.313881	44.446424	39.011787
-0.175000	-2.462414	-4.584149	94.174208	0.125274	-0.243592	0.127013	95.355302	19.064064	17.179876	-5.886183	29.573168	-15.378436	-13.774098	42.058993	10.194720	25.035077	17.209977	37.769777	6.870974	25.708684	25.175269	23.994521	-3.482772	40.434746	36.315835	6.132376	-11.412519	44.496709	39.247845
-0.165000	-2.462414	-4.584149	94.174208	0.129562	-0.245690	0.130555	96.170606	19.304262	18.208022	-6.281697	30.620218	-15.314739	-13.647955	41.870409	10.222923	25.483647	17.687985	38.182605	6.919928	26.090935	25.906812	24.481279	-3.531782	40.895279	36.483383	6.406717	-11.524724	44.576257	39.489257
-0.155000	-2.462414	-4.584149	94.174208	0.133468	-0.247885	0.133771	96.956343	19.499014	19.191498	-6.622756	31.608976	-15.230120	-13.515575	41.717698	10.249767	25.946562	18.179069	38.711484	6.976606	26.533935	26.706567	25.049016	-3.587909	41.410007	36.656736	6.718810	-11.664819	44.703570	39.764036
-0.145000	-2.462414	-4.584149	94.174208	0.136985	-0.250130	0.136669	97.706526	19.632980	20.135983	-6.910593	32.525984	-15.131654	-13.378558	41.615776	10.289719	26.437827	18.698042	39.373787	7.041950	27.066928	27.628886	25.734266	-3.659393	41.984130	36.839872	7.086158	-11.840654	44.880351	40.090375
-0.135000	-2.462414	-4.584149	94.174208	0.140127	-0.252361	0.139254	98.407229	19.694353	21.047490	-7.154380	33.356887	-15.034126	-13.242498	41.586322	10.354288	26.971527	19.259380	40.184979	7.114063	27.720379	28.736871	26.580117	-3.753182	42.624707	37.038984	7.550644	-12.047959	45.092051	40.471092
